<svg width="735" height="111" viewBox="0 0 735 111" fill="none" xmlns="http://www.w3.org/2000/svg">
<path d="M34.1514 3.33342C56.7285 1.44475 73.7056 13.496 74.9927 36.6943C67.7217 36.8061 60.4502 36.8207 53.1792 36.7372C51.2905 26.7152 47.0815 22.1205 36.0527 22.619C30.4888 22.8705 23.6186 27.7402 24.7168 33.9604C26.4961 44.0395 44.0786 44.3549 51.6455 47.5551C64.4116 51.9506 73.7915 57.7362 75.248 72.7655C76.1582 82.1649 74.1621 91.1152 67.9082 98.6005C60.1836 107.844 51.7876 109.846 40.2583 110.91C17.0298 111.887 1.77539 98.1806 0 75.0751C6.95557 74.8407 14.8066 75.0263 21.8296 75.0409C23.2134 89.9189 39.7471 95.8222 51.0552 86.0468C52.8579 84.4892 53.4136 78.7812 53.0146 76.33C51.1992 65.1581 32.6851 64.7675 24.3208 61.2226C3.72852 55.1005 -3.28076 32.5116 9.2959 15.3681C14.8232 7.83341 24.4053 4.2885 34.1514 3.33342Z" fill="#383838"/>
<path d="M118.723 28.1402C137.211 28.469 151.781 40.6223 155.831 58.4888C157.409 65.4468 157.113 70.9488 157 77.9995C157 77.9995 117.713 77.98 98.4999 77.9995C99.892 81.4515 101.267 84.3922 104.3 86.7066C113.76 93.928 124.616 92.5247 131.966 83.8189H140.217L148.542 83.7915H155.453C154.453 87.999 152.858 90.9693 150.503 94.607C145.392 102.39 137.398 107.825 128.28 109.709C117.306 112.068 105.249 111.394 95.4257 105.017C76.6524 92.8296 72.0119 63.7871 84.2304 45.5181C90.561 36.0518 100.19 30.4102 111.497 28.3794C113.9 28.1729 116.312 28.0928 118.723 28.1402ZM134.899 60.7749C132.455 54.0002 124.455 46.9997 114.094 47.9029C105.955 49.4991 102.285 53.1934 98.7675 60.7749H134.899Z" fill="#383838"/>
<path d="M178.722 30.501V39.4092C179.062 39.0313 179.405 38.6567 179.753 38.2852C186.006 31.6235 190.767 30.8325 199.404 30.501C199.287 37.7461 199.337 45.1397 199.31 52.398C177.566 48.3213 180.467 68.5132 180.54 82.9273L180.483 110.959L159.196 110.911L159.107 69.6069C159.094 60.979 159.109 42.665 159.109 42.665L159.108 30.501H178.722Z" fill="#383838"/>
<path d="M201.406 31.5795C209.024 31.517 216.643 31.5288 224.261 31.6142C229.628 48.7363 234.597 65.6772 240.189 82.7475C245.771 67.9428 251.249 47.415 256.494 31.6264L278.489 31.5532C275.586 38.5532 272.871 46.7055 270.304 53.914C263.436 72.7573 256.221 91.8037 250.289 110.959H230.789C227.77 101.887 224.046 92.6596 220.833 83.5678C214.645 66.0532 208.355 48.8149 201.406 31.5795Z" fill="#383838"/>
<path d="M290.195 0.358094C296.995 -1.28546 303.842 2.88399 305.502 9.6794C307.163 16.4748 303.011 23.3322 296.22 25.01C289.404 26.694 282.517 22.5236 280.85 15.7038C279.184 8.88396 283.371 2.00702 290.195 0.358094Z" fill="#383838"/>
<path d="M281.961 31.3838H304.394V110.959L282.089 110.93L281.961 31.3838Z" fill="#383838"/>
<path d="M342.841 28.3512C364.805 26.3224 381.086 37.6134 385.188 59.4078C378.127 59.3541 371.062 59.3541 363.996 59.4127C359.663 51.2975 352.876 46.3273 343.5 48.8815C319.668 55.3746 327.786 97.899 354.385 89.2809C359.668 87.5719 362.322 83.4362 364.618 78.6852H372.414H379.082L385.422 78.7633C382.449 95.7213 371.887 108.089 354.381 110.467C343.738 111.913 333.486 110.311 324.744 103.783C315.826 97.0934 309.956 87.1178 308.443 76.0728C304.92 51.7696 317.945 31.6495 342.841 28.3512Z" fill="#383838"/>
<path d="M428.691 28.1402C447.179 28.469 461.749 40.6223 465.8 58.4888C467.377 65.4468 467.081 70.9488 466.969 77.9995C466.969 77.9995 427.682 77.98 408.469 77.9995C409.861 81.4515 411.236 84.3922 414.268 86.7066C423.729 93.928 434.584 92.5247 441.935 83.8189H450.185L458.511 83.7915H465.422C464.422 87.999 462.827 90.9693 460.472 94.607C455.361 102.39 447.367 107.825 438.249 109.709C427.274 112.068 415.218 111.394 405.394 105.017C386.621 92.8296 381.981 63.7871 394.199 45.5181C400.53 36.0518 410.159 30.4102 421.466 28.3794C423.868 28.1729 426.28 28.0928 428.691 28.1402ZM444.868 60.7749C442.424 54.0002 434.424 46.9997 424.062 47.9029C415.924 49.4991 412.254 53.1934 408.736 60.7749H444.868Z" fill="#383838"/>
<path d="M530.11 5.72656C530.109 5.85262 529.652 49.809 529.463 71.8994C532.787 71.9438 538.946 71.8701 538.946 71.8701C539.446 71.8704 540.112 72.2769 540.157 73.4443C540.253 76.0946 540.368 90.3701 540.157 90.8701C539.946 91.3701 539.945 91.3697 539.575 91.4863C539.518 91.4861 532.269 91.4532 529.408 91.4863C529.349 97.9641 529.341 110.907 529.341 110.959L507.946 110.87L507.879 91.4795C495.112 91.2836 482.275 91.5164 469.463 91.3057C469.027 86.3674 468.769 75.7848 469.652 70.9609C470.214 67.8857 474.309 60.4673 475.862 57.4102L484.145 41.0049C485.738 37.9224 491.538 28.4749 489.742 25.4922C486.973 24.3382 474.845 24.624 474.845 24.624L474.953 5.72656H530.11ZM509.496 34.5576C506.557 39.686 503.519 46.2134 500.794 51.5986C498.462 56.2079 494.803 63.2013 493.073 67.9326C493.173 68.099 493.413 68.5539 493.539 68.6611C498.902 68.602 504.265 68.6125 509.628 68.7012C509.691 60.3069 509.577 51.9049 509.473 43.5088C509.455 42.1269 509.632 35.2936 509.496 34.5576Z" fill="#DC2626"/>
<path d="M542.273 4.90677C551.639 4.90775 561.478 4.75245 570.809 4.95851C576.136 20.522 581.629 36.0298 587.283 51.479C590.311 59.8067 594.651 70.7051 597.024 79.0498C605.262 57.0869 612.625 34.835 621.19 12.9927C622.244 10.2954 623.382 7.57032 624.598 4.94337C633.934 4.87257 652.606 4.98146 652.606 4.98146L652.488 110.861H631.204L631.346 42.728C631.346 42.728 623.89 62.4287 621.775 68.4981C616.844 82.6924 606.653 110.959 606.653 110.959H587.229C587.229 110.959 572.898 71.0664 566.6 50.8692C565.76 48.1773 563.836 42.9488 563.836 42.9488L563.982 110.9H542.415L542.417 106.69L542.415 81.6904V79.5381L542.273 4.90677Z" fill="#383838"/>
<path d="M695.879 28.1402C714.367 28.469 728.937 40.6223 732.987 58.4888C734.565 65.4468 734.269 70.9488 734.156 77.9995C734.156 77.9995 694.87 77.98 675.656 77.9995C677.048 81.4515 678.423 84.3922 681.456 86.7066C690.916 93.928 701.772 92.5247 709.122 83.8189H717.373L725.698 83.7915H732.609C731.609 87.999 730.015 90.9693 727.659 94.607C722.548 102.39 714.554 107.825 705.436 109.709C694.462 112.068 682.405 111.394 672.582 105.017C653.809 92.8296 649.168 63.7871 661.387 45.5181C667.717 36.0518 677.346 30.4102 688.653 28.3794C691.056 28.1729 693.468 28.0928 695.879 28.1402ZM712.056 60.7749C709.611 54.0002 701.611 46.9997 691.25 47.9029C683.111 49.4991 679.441 53.1934 675.924 60.7749H712.056Z" fill="#383838"/>
</svg>
