<svg width="599" height="252" viewBox="0 0 599 252" fill="none" xmlns="http://www.w3.org/2000/svg">
<path d="M79.6566 0.450611C132.317 -3.96371 171.915 24.2033 174.917 78.4237C157.958 78.6851 140.998 78.7192 124.038 78.5241C119.633 55.1001 109.816 44.361 84.0915 45.5262C71.1137 46.1139 55.0895 57.4956 57.6509 72.0339C61.801 95.5914 102.811 96.3287 120.461 103.808C150.237 114.082 172.116 127.604 175.513 162.732C177.636 184.701 172.98 205.62 158.393 223.115C140.376 244.719 120.792 249.398 93.9008 251.886C39.7212 254.168 4.14102 222.133 0 168.13C16.2236 167.582 34.5358 168.016 50.9166 168.05C54.1442 202.824 92.7083 216.621 119.084 193.774C123.289 190.133 124.585 176.792 123.654 171.063C119.42 144.951 76.2365 144.038 56.7272 135.753C8.69661 121.444 -7.65224 68.6478 21.6823 28.5788C34.5746 10.9683 56.9243 2.68288 79.6566 0.450611Z" fill="#383838"/>
<path d="M341.164 4.12904C362.979 4.13132 385.897 3.76836 407.632 4.24996C420.041 40.6258 432.836 76.8715 446.007 112.98C453.059 132.444 463.17 157.916 468.697 177.42C487.885 126.087 505.036 74.0789 524.986 23.0279C527.443 16.7237 530.093 10.3544 532.925 4.21457C554.671 4.0491 598.164 4.30359 598.164 4.30359L597.891 251.772H548.313L548.643 92.5269C548.643 92.5269 531.275 138.572 526.351 152.758C514.863 185.934 491.126 252 491.126 252H445.88C445.88 252 412.5 158.761 397.828 111.555C395.872 105.263 391.39 93.0428 391.39 93.0428L391.732 251.863H341.494L341.498 242.023L341.494 183.592V178.561L341.164 4.12904Z" fill="#383838"/>
<path d="M318.441 6.46094C318.438 6.69903 317.371 109.305 316.932 160.862C324.685 160.966 339.058 160.794 339.058 160.794C340.224 160.794 341.78 161.743 341.884 164.468C342.108 170.651 342.377 203.953 341.884 205.126C341.391 206.293 341.391 206.293 340.527 206.565C340.484 206.565 323.496 206.488 316.803 206.565C316.665 221.691 316.648 251.921 316.648 252L266.725 251.792L266.572 206.548C236.783 206.091 206.829 206.634 176.936 206.143C175.918 194.62 175.314 169.927 177.375 158.672C178.686 151.496 188.242 134.187 191.864 127.054L211.193 88.7773C214.91 81.5853 228.442 59.5399 224.251 52.5801C217.804 49.8929 189.607 50.553 189.493 50.5557L189.743 6.46094H318.441ZM270.337 73.7324C263.48 85.6983 256.391 100.929 250.034 113.494C244.592 124.249 236.054 140.567 232.018 151.606C232.251 151.995 232.81 153.056 233.104 153.306C245.618 153.168 258.133 153.193 270.648 153.4C270.794 133.814 270.527 114.209 270.285 94.6182C270.242 91.3947 270.656 75.4511 270.337 73.7324Z" fill="#DC2626"/>
</svg>
