<svg width="624" height="260" viewBox="0 0 624 260" fill="none" xmlns="http://www.w3.org/2000/svg">
<path d="M353 0.13519C376.003 0.137582 400.17 -0.242687 423.089 0.261878C436.173 38.3721 449.666 76.3461 463.554 114.177C470.99 134.568 481.652 161.255 487.481 181.689C507.713 127.909 525.799 73.4203 546.835 19.9352C549.426 13.3304 552.22 6.65742 555.207 0.224806C578.138 0.0514363 601.069 0.0825268 624 0.31807C623.364 83.2617 621.649 177.241 623.712 259.586H571.433C571.541 204.49 572.417 147.685 571.781 92.748C564.873 105.811 553.468 140.989 548.274 155.851C536.161 190.609 523.772 225.259 511.131 259.825L463.314 259.49C445.132 210.947 428.222 162.14 412.751 112.683C410.688 106.092 408.649 99.6649 405.962 93.2885C404.535 142.687 405.351 209.751 406.322 259.681C398.718 259.741 359.5 261.056 356.178 257.864C355.842 253.548 355.89 252.878 356.334 248.55C358.265 243.146 357.306 196.814 356.994 188.241C356.85 184.463 355.938 184.786 353.348 182.885L353 0.13519Z" fill="#383838"/>
<path d="M82.8248 0.464916C137.579 -4.08955 178.753 24.9716 181.874 80.9134C164.24 81.183 146.605 81.2183 128.972 81.0169C124.391 56.8493 114.183 45.7693 87.436 46.9715C73.9421 47.5779 57.2805 59.3209 59.9438 74.3207C64.259 98.6261 106.901 99.3867 125.252 107.104C156.213 117.703 178.961 131.655 182.493 167.898C184.701 190.564 179.86 212.147 164.693 230.198C145.959 252.488 125.597 257.315 97.6355 259.882C41.3011 262.237 4.30572 229.185 0 173.467C16.8688 172.902 35.9094 173.35 52.9417 173.385C56.2977 209.263 96.3956 223.498 123.82 199.925C128.192 196.169 129.54 182.404 128.572 176.494C124.17 149.553 79.2687 148.611 58.9834 140.062C9.0425 125.299 -7.9566 70.8271 22.5446 29.486C35.9497 11.3165 59.1883 2.76805 82.8248 0.464916Z" fill="#383838"/>
<path d="M330.946 0C331.42 54.557 331.42 109.118 330.955 163.674C339.15 163.783 346.316 163.847 354.557 163.4C356.525 164.85 357.218 164.604 357.327 167.484C357.564 174.021 358.294 209.343 356.826 213.464L355.814 212.288C349.123 211.431 337.901 211.896 330.818 211.979C330.673 227.986 330.618 243.993 330.654 260C313.635 259.316 295.121 259.49 277.983 259.335L277.729 211.96C246.243 211.477 214.584 212.051 182.988 211.531C181.913 199.353 181.275 173.254 183.453 161.358C184.839 153.774 194.939 135.478 198.768 127.939L219.196 87.4844C223.125 79.8827 237.427 56.5811 232.997 49.2256C226.169 46.3799 204.556 47.1261 196.261 47.0869C196.224 31.5509 196.307 16.0156 196.525 0.481445C241.247 0.0484503 286.252 0.920689 330.946 0ZM278.329 79.4053C271.082 92.0524 263.589 108.15 256.871 121.431C251.119 132.798 242.094 150.046 237.828 161.714C238.074 162.124 238.667 163.244 238.977 163.509C252.203 163.363 265.431 163.391 278.657 163.609C278.812 142.907 278.53 122.187 278.274 101.48C278.229 98.0729 278.666 81.2197 278.329 79.4053Z" fill="#AD0303"/>
</svg>
